Coordinates
version=1
nRows=65
nColumns=12
inDegrees=yes

Units are S.I. units (second, meters, Newtons, ...)
Angles are in degrees

endheader
time	SC_y	SC_z	SC_x	AC_y	AC_z	AC_x	GH_y	GH_z	GH_yy	EL_x	PS_y
       0.0              -59.66          4.159          66.49          48.14         -9.503          16.08          125.1          71.43         -38.66          113.5          144.9
   0.04038              -59.66          4.164          66.48          48.14         -9.505          16.07          125.1          71.43         -38.64          113.5          144.9
   0.08076              -59.66          4.169          66.47          48.13         -9.506          16.07          125.1          71.43         -38.61          113.5          144.9
    0.1211              -59.65          4.175          66.46          48.13         -9.508          16.07          125.1          71.43         -38.59          113.5          144.9
    0.1615              -59.65          4.181          66.45          48.13          -9.51          16.07          125.1          71.43         -38.56          113.5          144.9
    0.2019              -59.64          4.187          66.44          48.12         -9.512          16.07          125.1          71.43         -38.53          113.5          144.9
    0.2423              -59.64          4.194          66.43          48.12         -9.514          16.07          125.1          71.42          -38.5          113.5          144.9
    0.2827              -59.63          4.201          66.41          48.12         -9.516          16.06          125.1          71.42         -38.46          113.5          144.9
     0.323              -59.62          4.209           66.4          48.11         -9.518          16.06          125.1          71.42         -38.43          113.5          144.9
    0.3634              -59.62          4.217          66.39          48.11         -9.521          16.06          125.1          71.42         -38.39          113.5          144.9
    0.4038              -59.61          4.226          66.37          48.11         -9.524          16.06          125.1          71.42         -38.35          113.5          144.9
    0.4442               -59.6          4.236          66.36           48.1         -9.526          16.05          125.1          71.41          -38.3          113.5          144.9
    0.4846              -59.59          4.246          66.34           48.1          -9.53          16.05          125.1          71.41         -38.25          113.5          144.9
    0.5249              -59.58          4.258          66.32          48.09         -9.533          16.05          125.1          71.41          -38.2          113.5          144.9
    0.5653              -59.57           4.27           66.3          48.08         -9.537          16.04          125.1           71.4         -38.14          113.5          144.9
    0.6057              -59.56          4.283          66.28          48.08         -9.541          16.04          125.1           71.4         -38.08          113.5          144.8
    0.6461              -59.55          4.297          66.25          48.07         -9.545          16.04          125.1           71.4         -38.01          113.5          144.8
    0.6865              -59.54          4.313          66.23          48.06          -9.55          16.03          125.1          71.39         -37.94          113.5          144.8
    0.7268              -59.52           4.33           66.2          48.06         -9.555          16.03          125.1          71.39         -37.86          113.5          144.8
    0.7672              -59.51          4.349          66.17          48.05          -9.56          16.02          125.0          71.39         -37.77          113.4          144.8
    0.8076              -59.49          4.369          66.13          48.04         -9.567          16.02          125.0          71.38         -37.67          113.4          144.8
     0.848              -59.47          4.392           66.1          48.02         -9.573          16.01          125.0          71.37         -37.57          113.4          144.8
    0.8884              -59.45          4.417          66.05          48.01         -9.581           16.0          125.0          71.37         -37.45          113.4          144.8
    0.9287              -59.43          4.444          66.01           48.0         -9.589          15.99          125.0          71.36         -37.32          113.4          144.8
    0.9691               -59.4          4.475          65.96          47.98         -9.598          15.99          125.0          71.35         -37.17          113.4          144.7
     1.009              -59.38          4.509           65.9          47.97         -9.609          15.98          125.0          71.34         -37.01          113.4          144.7
      1.05              -59.34          4.547          65.83          47.95          -9.62          15.96          125.0          71.34         -36.83          113.4          144.7
      1.09              -59.31           4.59          65.76          47.93         -9.633          15.95          125.0          71.32         -36.63          113.4          144.7
     1.131              -59.27          4.639          65.68           47.9         -9.648          15.94          125.0          71.31          -36.4          113.4          144.6
     1.171              -59.22          4.695          65.59          47.88         -9.665          15.92          125.0           71.3         -36.14          113.4          144.6
     1.211              -59.17          4.758          65.48          47.85         -9.684           15.9          124.9          71.28         -35.84          113.3          144.6
     1.252              -59.11           4.83          65.36          47.81         -9.706          15.88          124.9          71.26          -35.5          113.3          144.5
     1.292              -59.04          4.914          65.22          47.77         -9.731          15.86          124.9          71.24          -35.1          113.3          144.5
     1.333              -58.96          5.011          65.06          47.72          -9.76          15.83          124.9          71.22         -34.65          113.3          144.4
     1.373              -58.87          5.125          64.87          47.67         -9.795           15.8          124.8          71.19         -34.11          113.2          144.4
     1.413              -58.76          5.259          64.64           47.6         -9.835          15.76          124.8          71.16         -33.48          113.2          144.3
     1.454              -58.63          5.418          64.37          47.52         -9.883          15.71          124.8          71.12         -32.73          113.2          144.2
     1.494              -58.47          5.609          64.05          47.43         -9.941          15.66          124.7          71.07         -31.83          113.1          144.1
     1.534              -58.28          5.841          63.67          47.32         -10.01          15.59          124.6          71.01         -30.74          113.1          143.9
     1.575              -58.04          6.123          63.19          47.18          -10.1          15.51          124.6          70.94         -29.41          113.0          143.8
     1.615              -57.76          6.472          62.61          47.01          -10.2          15.41          124.5          70.85         -27.76          112.9          143.6
     1.656               -57.4          6.906          61.88          46.79         -10.33          15.29          124.3          70.74         -25.72          112.8          143.3
     1.696              -56.95          7.454          60.96          46.53          -10.5          15.13          124.2          70.61         -23.14          112.6          143.0
     1.736              -56.37          8.149          59.79          46.19         -10.71          14.93          124.0          70.43         -19.86          112.5          142.6
     1.777              -55.64           9.04           58.3          45.75         -10.98          14.67          123.8          70.21         -15.66          112.2          142.1
     1.817              -54.69          10.18          56.38          45.19         -11.32          14.34          123.4          69.92         -10.27          111.9          141.4
     1.857              -53.49          11.64          53.93          44.48         -11.76          13.93          123.0          69.56         -3.388          111.5          140.6
     1.898              -51.97          13.48          50.85          43.58         -12.31           13.4          122.5           69.1          5.265          111.1          139.5
     1.938              -50.13          15.72           47.1          42.48         -12.99          12.76          121.9          68.54          15.81          110.5          138.2
     1.979              -47.99          18.31          42.75          41.22         -13.77          12.01          121.2          67.89          28.03          109.8          136.7
     2.019              -45.67          21.12          38.04          39.84         -14.62           11.2          120.5          67.19          41.27          109.1          135.1
     2.059              -43.35          23.93          33.33          38.47         -15.46           10.4          119.7          66.48           54.5          108.3          133.4
       2.1              -41.21          26.52          28.98           37.2         -16.25          9.651          119.0          65.83          66.72          107.7          131.9
      2.14              -39.37          28.76          25.23          36.11         -16.92          9.009          118.4          65.27          77.27          107.1          130.6
     2.181              -37.85          30.59          22.15          35.21         -17.47          8.481          117.9          64.81          85.92          106.6          129.6
     2.221              -36.65          32.05           19.7          34.49         -17.91          8.062          117.5          64.45           92.8          106.2          128.7
     2.261              -35.71           33.2          17.79          33.93         -18.26          7.733          117.1          64.16          98.19          105.9          128.1
     2.302              -34.97          34.09          16.29           33.5         -18.53          7.477          116.9          63.94          102.4          105.7          127.5
     2.342               -34.4          34.78          15.12          33.16         -18.74          7.277          116.7          63.76          105.7          105.5          127.1
     2.382              -33.94          35.33          14.21          32.89          -18.9           7.12          116.6          63.63          108.2          105.4          126.8
     2.423              -33.59          35.77          13.48          32.68         -19.03          6.995          116.4          63.52          110.3          105.2          126.6
     2.463               -33.3          36.11          12.89          32.51         -19.14          6.895          116.3          63.43          111.9          105.2          126.4
     2.504              -33.06           36.4          12.42          32.37         -19.22          6.814          116.3          63.36          113.3          105.1          126.2
     2.544              -32.87          36.63          12.03          32.26         -19.29          6.747          116.2           63.3          114.4          105.0          126.1
     2.584              -32.72          36.82          11.71          32.16         -19.35          6.693          116.2          63.26          115.3          105.0          126.0
